PathFileType	4	(X/Y/Z)	c:/Users/goper/Files/vsCode/490R/osim_files/A05/A05_Fast_03.trc
DataRate	CameraRate	NumFrames	NumMarkers	Units                	OrigDataRate	OrigDataStartFrame	OrigNumFrames
250.00	250.00	8	36	mm	250.0	1101	2200
                Frame#	Time	LPSIS			LASIS			LTH1			LTH2			LTH3			LTH4			LLFE			LMFE			LSH1			LSH2			LSH3			LSH4			LLMAL			LMMAL			LCAL			LMTP5			LTOE			LMTP1			RPSIS			RASIS			RTH1			RTH2			RTH3			RTH4			RLFE			RMFE			RSH1			RSH2			RSH3			RSH4			RLMAL			RMMAL			RCAL			RMTP1			RTOE			RMTP5		
		X1	Y1	Z1	X2	Y2	Z2	X3	Y3	Z3	X4	Y4	Z4	X5	Y5	Z5	X6	Y6	Z6	X7	Y7	Z7	X8	Y8	Z8	X9	Y9	Z9	X10	Y10	Z10	X11	Y11	Z11	X12	Y12	Z12	X13	Y13	Z13	X14	Y14	Z14	X15	Y15	Z15	X16	Y16	Z16	X17	Y17	Z17	X18	Y18	Z18	X19	Y19	Z19	X20	Y20	Z20	X21	Y21	Z21	X22	Y22	Z22	X23	Y23	Z23	X24	Y24	Z24	X25	Y25	Z25	X26	Y26	Z26	X27	Y27	Z27	X28	Y28	Z28	X29	Y29	Z29	X30	Y30	Z30	X31	Y31	Z31	X32	Y32	Z32	X33	Y33	Z33	X34	Y34	Z34	X35	Y35	Z35	X36	Y36	Z36

1101	4.40000	-446.09445	1001.04181	306.89932	-640.93958	948.11548	407.15109	-536.06122	661.92175	443.79248	-555.56592	623.47961	444.73209	-592.52026	681.41693	463.90387	-603.35071	639.71124	459.49323	-645.96454	467.66119	432.30341	-648.39612	467.33871	332.55502	-623.20599	368.24960	440.95441	-626.93799	323.44217	442.85156	0.00000	0.00000	0.00000	-678.99994	322.81009	433.48764	-674.05023	109.47351	430.82065	-671.84253	112.77654	341.58813	-595.36328	56.44937	381.14780	-806.45886	51.79907	456.15387	-854.06519	77.07227	395.12845	-812.51740	66.75607	348.27090	-449.43915	1007.05078	226.46780	-626.48547	960.75293	110.51878	-529.07977	600.43378	42.00227	-536.10968	558.80774	44.66169	-588.78021	603.70111	56.16227	-584.85010	557.89526	58.46657	-497.81613	520.12122	57.13425	-534.55560	482.06171	187.29056	-323.73532	327.42462	71.35876	-296.96558	289.77335	82.77772	-369.72266	287.30600	66.26868	-333.39294	255.34457	73.71886	-235.08783	196.49130	103.23820	-299.32458	183.87471	180.27527	-166.95026	180.73384	185.05542	-327.42966	58.47573	166.06728	-348.10052	56.29301	112.82890	-282.32483	60.51343	58.44536
1102	4.40400	-450.93768	1001.45123	307.42603	-644.99164	948.21814	407.93173	-537.56445	663.19238	443.90308	-558.26312	623.91852	445.33871	-595.50519	681.62274	464.53409	-606.04993	639.99670	460.09464	-647.95947	467.64130	432.70160	-650.34424	467.52850	333.04984	0.00000	0.00000	0.00000	-628.26721	323.58548	443.09927	0.00000	0.00000	0.00000	-680.40851	322.71954	433.75760	-674.36151	109.36571	430.86160	-672.08636	112.73717	341.65662	-595.42145	56.55811	381.18933	-806.55737	51.44830	456.17599	-854.25281	76.67919	395.14856	-812.66797	66.45618	348.32248	-453.48068	1007.56244	227.11368	-630.78314	961.28760	111.48167	-537.20465	600.57867	41.22729	-544.65186	558.99634	43.78519	-597.02789	604.20135	55.57560	0.00000	0.00000	0.00000	-506.91931	520.00122	56.06398	-544.16339	481.41440	185.68288	-331.20074	329.82858	70.67543	-303.98193	292.51923	82.18886	-376.72781	289.13138	65.75426	-339.94443	257.62454	73.21987	-241.00650	200.39394	102.82556	-305.06110	186.68533	179.83206	-173.19563	187.44832	184.99323	-329.66736	60.47084	165.49980	-350.05685	56.94771	112.81708	-284.35483	63.12140	58.53683
1103	4.40800	-454.26358	1002.20715	308.21954	-648.78754	948.51019	409.11273	-541.82898	662.95673	445.02695	-560.80719	624.40118	445.85437	-598.76709	681.77686	465.24628	-608.76294	640.27435	460.65466	-649.76605	467.71320	433.13126	-652.23578	467.67673	333.48068	-626.02643	368.52832	441.62027	-629.41052	323.72531	443.39819	0.00000	0.00000	0.00000	-681.53394	322.67941	434.13400	-674.48419	109.29893	430.95587	-672.29517	112.76261	341.75485	-595.52911	56.62730	381.22012	-806.70044	51.09934	456.23193	-854.42969	76.39006	395.26956	-812.85071	66.29157	348.44196	-457.51025	1008.05109	227.76701	-634.97430	961.92401	112.33409	-545.33203	600.69415	40.62576	-553.24255	559.20081	42.95908	-605.25793	604.90454	54.88612	0.00000	0.00000	0.00000	-516.56165	520.16656	54.61567	-553.81097	480.88196	184.34781	-338.76907	332.27820	69.97201	-311.18881	295.52545	81.42667	-383.78159	291.02872	65.22993	-346.65295	260.04034	72.72278	-247.10718	204.33694	102.40758	-310.98306	189.60336	179.36723	-179.62973	194.31943	184.90326	-332.04922	62.06050	165.60320	-351.66592	57.40590	112.44853	-286.44547	66.21465	58.46385
1104	4.41200	-458.29675	1002.82324	308.90814	-652.64758	948.80035	410.18649	-542.84277	664.46417	444.89453	-563.34558	624.85858	446.32077	-601.50299	682.41284	465.70209	-611.36035	640.48682	461.19928	-651.49835	467.80176	433.58386	-653.97961	467.89017	333.93369	-626.66473	369.68259	440.96243	-630.55115	323.84958	443.65274	0.00000	0.00000	0.00000	-682.69080	322.61108	434.45801	-674.66425	109.21759	431.05743	-672.46155	112.77882	341.83371	-595.64197	56.63427	381.21930	-806.77100	50.77623	456.29300	-854.53674	76.13103	395.38007	-813.14337	65.76617	348.57892	-461.53156	1008.56219	228.51541	-639.15747	962.62531	113.22792	-553.52228	600.91241	40.13849	-561.89386	559.41901	42.30339	-613.58618	605.57043	54.37247	0.00000	0.00000	0.00000	-525.46643	520.12091	53.82133	-563.65039	480.39761	182.87796	-346.37375	335.28540	69.50822	-318.32306	298.23523	80.91364	-390.91348	293.14026	64.74215	-353.37589	262.46304	72.26896	-253.41942	208.33354	102.05682	-317.61328	192.24759	178.26707	-186.49719	201.27470	184.84966	-334.79630	63.84924	165.49496	-354.03650	58.35408	112.12763	-288.73560	69.46841	58.22919
1105	4.41600	-462.33075	1003.34985	309.64001	-656.66730	948.95563	410.92624	-546.34839	664.25104	445.91922	-565.81805	625.36438	446.80960	-604.14697	682.70074	466.23596	-613.85944	640.72406	461.70560	-653.16248	467.85968	433.98663	-655.71655	468.05228	334.33728	-628.45038	368.84012	442.10858	-631.62360	323.98462	443.89874	0.00000	0.00000	0.00000	-683.77838	322.56631	434.75888	-674.77917	109.17017	431.11029	-672.58362	112.79440	341.89938	-595.81061	56.60949	381.15085	-806.88403	50.55078	456.30237	-854.63940	75.92203	395.44455	-813.15729	65.95472	348.58008	-465.09366	1009.38696	228.96483	-643.38794	963.35315	114.05570	-562.41327	600.91467	39.14136	-570.54144	559.70776	41.79820	-622.30701	604.64606	55.72734	0.00000	0.00000	0.00000	-534.49591	520.13721	52.94940	-573.39996	480.08191	181.84702	-354.21777	337.80960	68.86448	-325.73166	301.08902	80.26493	-398.37183	295.14755	64.39946	-360.49591	264.94992	71.90534	-259.79517	212.40146	101.64230	-323.87677	195.64690	178.10286	-193.49210	208.44826	184.56749	-337.76657	65.69626	165.32442	-356.47021	59.46274	111.76322	-291.05188	72.80241	57.91448
1106	4.42000	-466.28336	1003.95996	310.30692	-660.56946	949.40082	412.17291	-548.91254	664.89911	446.40259	-568.19019	625.86310	447.28333	-606.74530	682.97852	466.76285	-616.27362	640.97247	462.21695	-654.62244	468.00739	434.37933	-657.39966	468.21783	334.73923	-629.74664	369.03696	442.46884	-632.51721	324.18774	444.12375	0.00000	0.00000	0.00000	-684.75183	322.55829	435.01889	-674.89032	109.16740	431.19498	-672.73114	112.80907	341.96884	-596.77155	56.34304	380.88254	-807.00775	50.34675	456.28644	-854.78094	75.64754	395.48346	-813.29181	65.80605	348.61899	-469.53482	1009.45496	229.89137	-647.59906	964.06799	114.93951	-570.88293	601.17120	38.60158	-579.39618	559.81714	41.00598	-630.60999	605.39429	55.22472	0.00000	0.00000	0.00000	-543.84705	520.15533	51.91783	-583.12335	480.07996	181.04843	-362.16183	340.43188	68.35040	-333.01566	303.93570	79.83752	-405.84381	297.29651	64.07622	-367.64795	267.49634	71.58778	-266.41364	216.50342	101.20293	-329.84161	199.30367	178.59915	-201.15065	215.45654	184.20648	-340.79517	67.65649	165.15134	-359.01740	60.60398	111.71516	-294.36353	75.46227	58.39041
1107	4.42400	-470.27252	1004.50214	310.99268	-664.46954	949.76086	413.37714	-552.20178	664.89081	447.07794	-570.52338	626.36853	447.70895	-609.16473	683.29724	467.33200	-618.56213	641.28711	462.72763	-656.15985	468.08337	434.74753	-658.98846	468.45486	335.12164	-630.78101	369.24112	442.63379	-633.48157	324.37686	444.32840	0.00000	0.00000	0.00000	-685.68958	322.58044	435.34589	-674.96307	109.13479	431.20667	-672.83215	112.83726	341.98004	-596.77502	56.37652	380.92554	-807.06146	50.17857	456.27304	-854.88721	75.42563	395.54059	-813.42554	65.70090	348.65817	-473.45248	1009.90814	230.58386	-651.74799	964.88428	115.75050	-579.30579	601.54504	38.09964	-588.21283	560.24396	40.54761	-638.95795	606.15491	54.88888	0.00000	0.00000	0.00000	-553.14087	520.21899	51.03724	-592.74908	480.25409	180.65361	-370.24924	343.11450	67.83849	-340.67441	306.92639	79.22598	-413.52594	299.46243	64.23283	-374.90482	270.15726	71.27468	-273.21802	220.53334	100.75726	-336.56638	202.03471	177.66327	-209.18793	222.63135	183.77591	-344.10495	69.80177	164.99768	-362.19232	61.79081	111.14214	-297.47144	79.14095	58.17664
1108	4.42800	-474.98694	1004.84698	311.59839	-668.49811	950.04163	414.28726	-553.77576	666.04230	447.41415	-572.77026	626.89453	448.11282	-611.66992	683.65613	467.82352	-620.82404	641.58014	463.22690	-657.54419	468.21509	435.17383	-660.59595	468.63452	335.48465	-631.95239	369.40256	442.88669	-634.47876	324.55585	444.52820	0.00000	0.00000	0.00000	-686.72461	322.56229	435.55927	-675.06689	109.12231	431.28448	-672.93628	112.82518	342.02637	-596.86011	56.42610	380.91446	-807.10870	50.06986	456.27884	-854.94122	75.30019	395.57095	-813.49951	65.59137	348.69458	-477.34604	1010.40149	231.29364	-655.93451	965.64709	116.53527	-587.79236	602.04163	37.72752	-596.94537	560.76697	40.10065	-647.01392	608.76941	52.70193	0.00000	0.00000	0.00000	-562.48248	520.38507	50.19115	-602.24432	480.81836	180.44078	-378.47473	345.82669	67.36897	-348.47540	309.94757	78.58355	-421.23001	301.77444	64.42155	-382.39230	272.81940	70.99292	-280.16040	224.64890	100.27718	-343.20044	205.21524	177.35258	-217.49963	229.68176	183.32010	-347.48117	72.06812	164.77977	-365.41663	63.24276	110.82767	-301.01712	82.93585	58.03325
